<?xml version="1.0" encoding="utf-8"?>
<!-- Generator: Adobe Illustrator 24.0.0, SVG Export Plug-In . SVG Version: 6.00 Build 0)  -->
<svg version="1.1" id="Layer_1" xmlns="http://www.w3.org/2000/svg" xmlns:xlink="http://www.w3.org/1999/xlink" x="0px" y="0px"
	 viewBox="0 0 1000 1000" style="enable-background:new 0 0 1000 1000;" xml:space="preserve">
<style type="text/css">
	.st0{fill:#7F3F98;}
	.st1{fill:none;stroke:#7F3F98;stroke-width:13;stroke-miterlimit:10;}
	.st2{fill:#7F3F98;stroke:#7F3F98;stroke-width:16;stroke-miterlimit:10;}
	.st3{fill:none;stroke:#7F3F98;stroke-width:31;stroke-miterlimit:10;}
</style>
<g>
	<g>
		<g>
			<g>
				<g>
					<path class="st0" d="M235.37,905.44c-1.49,8.51-1.04,17.39-0.72,25.98c0.46,12.07,1.4,24.13,2.98,36.11
						c0.93,7.04,1.95,14.08,3.55,21c1.18,5.1,7.31,8.6,12.3,6.98c5.33-1.73,8.25-6.84,6.98-12.3c-1.35-5.83-2.31-11.74-3.1-17.66
						c0.12,0.89,0.24,1.77,0.36,2.66c-2.26-16.88-3.54-34.09-3.29-51.13c0.04-2.73,0.1-5.47,0.45-8.18
						c-0.12,0.89-0.24,1.77-0.36,2.66c0.04-0.27,0.08-0.53,0.12-0.8c0.47-2.71,0.43-5.25-1.01-7.71c-1.21-2.07-3.59-4.05-5.98-4.6
						c-2.56-0.58-5.43-0.46-7.71,1.01C237.89,900.8,235.81,902.92,235.37,905.44L235.37,905.44z"/>
				</g>
			</g>
			<g>
				<g>
					<path class="st0" d="M375.9,776.39c-8.55,5.49-17.65,10.11-26.62,14.85c-11.63,6.15-23.24,12.32-34.58,18.99
						c-12.75,7.51-25.07,15.68-36.64,24.91c-10.96,8.74-20.95,18.67-28.93,30.24c-7.82,11.35-12.81,24.38-13.92,38.14
						c-0.12,1.52-0.18,3.04-0.19,4.57c-0.02,5.23,4.62,10.24,10,10c5.44-0.24,9.97-4.39,10-10c0.01-2.52,0.18-5.03,0.5-7.52
						c-0.12,0.89-0.24,1.77-0.36,2.66c0.74-5.51,2.25-10.86,4.4-15.99c-0.34,0.8-0.67,1.59-1.01,2.39
						c2.81-6.64,6.62-12.8,11.02-18.5c-0.52,0.67-1.04,1.35-1.56,2.02c5.89-7.58,12.77-14.35,20.1-20.53
						c2.17-1.83,4.39-3.61,6.64-5.35c-0.67,0.52-1.35,1.04-2.02,1.56c12.62-9.74,26.22-18.13,40.09-25.97
						c12.37-6.99,25.01-13.45,37.51-20.2c5.3-2.86,10.6-5.76,15.67-9.02c2.17-1.39,3.9-3.45,4.6-5.98c0.66-2.39,0.36-5.58-1.01-7.71
						C386.74,775.58,380.61,773.37,375.9,776.39L375.9,776.39z"/>
				</g>
			</g>
		</g>
		<g>
			<g>
				<path class="st0" d="M381.34,805.69c6.14-1.79,12.34-3.15,18.64-4.2c6.09-1.02,12.04-2.43,17.94-4.28
					c5.52-1.73,10.49-5.29,13.45-10.34c1.64-2.58,2.53-5.37,2.67-8.37c0.67-2.99,0.54-5.98-0.4-8.97
					c-1.76-5.44-5.14-10.7-10.34-13.45c-5.25-2.78-11.51-4.09-17.34-2.27c-5.9,1.84-11.84,3.26-17.94,4.28
					c-6.31,1.05-12.5,2.42-18.64,4.2c-5.48,1.6-10.55,5.39-13.45,10.34c-1.64,2.58-2.53,5.37-2.67,8.37
					c-0.67,2.99-0.54,5.98,0.4,8.97c1.76,5.44,5.14,10.7,10.34,13.45C369.32,806.23,375.43,807.41,381.34,805.69L381.34,805.69z"/>
			</g>
		</g>
		<polyline class="st1" points="388.13,827.82 369.16,834.31 394.88,773.21 446.15,812.55 429.02,817.39 		"/>
	</g>
	<polygon class="st2" points="438.48,829.63 403.97,825.8 386.47,848.93 394.88,773.21 	"/>
	<g>
		<path class="st3" d="M622.44,162.46c24.05-4.67,48.74,1.77,64.41,22.13c11.49,14.93,22.57,37.24,27.68,63.54l58.76,329.95
			c14.32,73.66-3.51,117.35-64.4,129.19l-6.28,1.22c-36.09,7.02-67.57-10.23-95.22-31.75L416.04,484.97l32.08,172.35
			c5.11,26.3,8.81,45.91,3.76,64.05c-6.9,24.74-27.11,41.15-51.16,45.83l-12.03,2.34c-24.05,4.68-53.34,0.66-68.99-19.69
			c-11.48-14.93-14.03-39.9-19.14-66.2l-65.16-341.4c-14.32-73.66,5.98-105.69,66.86-117.52l16.01-3.12
			c36.09-7.01,77.14,13.45,101.93,40.62L623.34,496.2l-54.97-218.7c-5.11-26.3-8.14-49.9-3.08-68.04
			c6.89-24.75,27.09-41.15,51.15-45.83L622.44,162.46z"/>
	</g>
</g>
<g>
	<g>
		<path class="st0" d="M384.53,789.15c0.8-0.37,1.6-0.72,2.4-1.07c-0.5,0.21-1,0.42-1.49,0.63c2.9-1.22,5.86-2.14,8.87-3.03
			c3.69-1.09,7.24-2.58,10.7-4.27c2.94-1.44,3.98-5.86,2.24-8.55c-1.94-3.01-5.4-3.79-8.55-2.24c-1.22,0.6-2.45,1.17-3.7,1.7
			c0.5-0.21,1-0.42,1.49-0.63c-2.5,1.04-5.07,1.8-7.67,2.57c-3.64,1.08-7.15,2.51-10.6,4.1c-1.34,0.62-2.5,2.37-2.87,3.74
			c-0.41,1.5-0.23,3.49,0.63,4.82c0.86,1.33,2.14,2.51,3.74,2.87C381.44,790.18,382.92,789.89,384.53,789.15L384.53,789.15z"/>
	</g>
</g>
</svg>
